<?xml version="1.0" encoding="UTF-8" standalone="no"?>
<!-- Created with Inkscape (http://www.inkscape.org/) -->

<svg
   width="47.000004mm"
   height="47.000057mm"
   viewBox="0 0 47.000004 47.000057"
   version="1.1"
   id="svg8215"
   xml:space="preserve"
   inkscape:version="1.2 (dc2aedaf03, 2022-05-15)"
   sodipodi:docname="au.svg"
   xmlns:inkscape="http://www.inkscape.org/namespaces/inkscape"
   xmlns:sodipodi="http://sodipodi.sourceforge.net/DTD/sodipodi-0.dtd"
   xmlns="http://www.w3.org/2000/svg"
   xmlns:svg="http://www.w3.org/2000/svg"><sodipodi:namedview
     id="namedview8217"
     pagecolor="#ffffff"
     bordercolor="#666666"
     borderopacity="1.0"
     inkscape:showpageshadow="2"
     inkscape:pageopacity="0.0"
     inkscape:pagecheckerboard="0"
     inkscape:deskcolor="#d1d1d1"
     inkscape:document-units="mm"
     showgrid="false"
     inkscape:zoom="1.1893044"
     inkscape:cx="-215.25187"
     inkscape:cy="184.56166"
     inkscape:window-width="1920"
     inkscape:window-height="1017"
     inkscape:window-x="-8"
     inkscape:window-y="-8"
     inkscape:window-maximized="1"
     inkscape:current-layer="layer1" /><defs
     id="defs8212" /><g
     inkscape:label="Camada 1"
     inkscape:groupmode="layer"
     id="layer1"
     transform="translate(-58.104779,-143.57406)"><path
       style="fill:#010039;stroke-width:1"
       d="m 79.528632,190.50637 c -2.627239,-0.30199 -5.040992,-0.90927 -7.126311,-1.79294 -1.130416,-0.47901 -3.208067,-1.62669 -4.161917,-2.29899 -1.83335,-1.29221 -4.073314,-3.42602 -5.32592,-5.07352 -5.380467,-7.07669 -6.324634,-16.57356 -2.438569,-24.52823 2.338244,-4.78632 6.033711,-8.49701 10.824901,-10.86951 0.40269,-0.1994 0.748517,-0.36254 0.768509,-0.36254 0.01996,0 0.234357,-0.0905 0.476389,-0.20112 1.20599,-0.5512 3.820391,-1.28654 5.482643,-1.54209 5.101157,-0.78424 10.660897,0.20589 14.961075,2.66441 0.183369,0.10483 0.408408,0.23234 0.500089,0.28335 0.542137,0.30161 2.082889,1.32974 2.500461,1.66853 2.985938,2.42255 5.085938,4.98813 6.671168,8.15019 0.96827,1.93141 1.73981,4.26052 2.08859,6.30498 0.44824,2.62751 0.47389,5.72173 0.0665,8.01694 -0.90107,5.07612 -3.19024,9.44082 -6.796983,12.95965 -1.181417,1.15262 -1.69582,1.57835 -3.210029,2.65665 -0.812438,0.57856 -2.979564,1.74262 -4.195198,2.25342 -0.900254,0.37828 -1.096266,0.44972 -1.83367,0.66834 -0.389655,0.11552 -0.895998,0.26653 -1.125205,0.33559 -0.782842,0.23584 -2.465721,0.53245 -4.04241,0.71249 -0.747982,0.0854 -3.323029,0.0819 -4.08408,-0.005 z m 5.142129,-8.04897 0.233856,-0.20153 0.0245,-9.71524 c 0.01347,-5.34338 0.002,-9.87567 -0.02619,-10.07175 -0.08673,-0.61008 -0.104567,-0.614 -2.804572,-0.6155 -3.569345,-0.002 -3.380148,-0.0115 -3.569913,0.17866 -0.164854,0.16517 -0.166694,0.27837 -0.166694,10.22388 v 10.05686 l 0.21961,0.17308 c 0.212335,0.16734 0.312923,0.17307 3.037576,0.17307 h 2.817965 z m -2.224929,-23.43495 c 1.391749,-0.30678 2.506578,-1.39739 2.868682,-2.80638 0.172447,-0.671 0.166593,-1.20225 -0.02071,-1.87898 -0.532161,-1.92283 -2.372884,-3.12599 -4.264911,-2.78769 -0.889156,0.15899 -1.488716,0.45579 -2.063554,1.02153 -1.051262,1.03462 -1.398199,2.41332 -0.977257,3.88345 0.278083,0.97119 1.139417,1.94112 2.0823,2.34484 0.694531,0.29738 1.637151,0.38596 2.375435,0.22323 z"
       id="path8711" /></g></svg>
