<?xml version="1.0" encoding="UTF-8" standalone="no"?>
<!-- Created with Inkscape (http://www.inkscape.org/) -->

<svg
   width="47mm"
   height="46.999981mm"
   viewBox="0 0 47.000001 46.999981"
   version="1.1"
   id="svg5"
   xml:space="preserve"
   xmlns="http://www.w3.org/2000/svg"
   xmlns:svg="http://www.w3.org/2000/svg"><defs
     id="defs2" /><g
     id="layer1"
     transform="translate(-89.62864,-129.45359)"><path
       id="path1086"
       style="fill:#010039;fill-opacity:1;fill-rule:evenodd;stroke-width:0.264999;stroke-linecap:round;stroke-linejoin:round;paint-order:fill markers stroke"
       d="m 113.04122,129.45359 -23.41258,28.2922 6.667195,-0.0101 6e-6,16.7962 c 0,1.06462 0.765599,1.92168 1.716575,1.92168 h 10.975664 v -13.22251 c 0,-1.0646 0.7656,-1.92167 1.71657,-1.92167 h 4.85365 c 0.95099,-1e-5 1.71658,0.85707 1.71658,1.92167 v 13.22251 h 10.97566 c 0.95099,0 1.71657,-0.85706 1.71657,-1.92168 V 157.6849 l 6.66153,-0.0101 -8.6422,-10.33997 v -13.23237 c 0,-1.0646 -0.76558,-1.92169 -1.71657,-1.92169 h -5.34778 c -0.95099,0 -1.71658,0.85709 -1.71658,1.92169 v 2.72604 z" /></g></svg>
