<?xml version="1.0" encoding="UTF-8" standalone="no"?>
<!-- Created with Inkscape (http://www.inkscape.org/) -->

<svg
   width="39.524261mm"
   height="31.191954mm"
   viewBox="0 0 39.52426 31.191953"
   version="1.1"
   id="svg5"
   xml:space="preserve"
   inkscape:version="1.2 (dc2aedaf03, 2022-05-15)"
   sodipodi:docname="Logo_Only.svg"
   inkscape:export-filename="Logo_Mach_Academy.png"
   inkscape:export-xdpi="481"
   inkscape:export-ydpi="481"
   xmlns:inkscape="http://www.inkscape.org/namespaces/inkscape"
   xmlns:sodipodi="http://sodipodi.sourceforge.net/DTD/sodipodi-0.dtd"
   xmlns="http://www.w3.org/2000/svg"
   xmlns:svg="http://www.w3.org/2000/svg"><sodipodi:namedview
     id="namedview7"
     pagecolor="#ffffff"
     bordercolor="#666666"
     borderopacity="1.0"
     inkscape:showpageshadow="2"
     inkscape:pageopacity="0.0"
     inkscape:pagecheckerboard="0"
     inkscape:deskcolor="#d1d1d1"
     inkscape:document-units="mm"
     showgrid="false"
     inkscape:zoom="2.8284271"
     inkscape:cx="24.395184"
     inkscape:cy="86.797357"
     inkscape:window-width="1920"
     inkscape:window-height="1017"
     inkscape:window-x="-8"
     inkscape:window-y="-8"
     inkscape:window-maximized="1"
     inkscape:current-layer="layer1" /><defs
     id="defs2" /><g
     inkscape:label="Camada 1"
     inkscape:groupmode="layer"
     id="layer1"
     transform="translate(-84.974545,-157.7061)"><path
       style="fill:#00214d;fill-opacity:1;stroke:none;stroke-width:0.265;stroke-linecap:butt;stroke-linejoin:miter;stroke-dasharray:none;stroke-opacity:1"
       d="m 106.00188,169.01555 c 0,0 2.38044,-3.27311 5.14347,-3.06057 0.085,0 2.80553,-1.0627 2.80553,-1.0627 l -1.0202,2.12539 c 0,0 -0.82251,1.14471 -1.46013,3.10006 -1.4e-4,3.9e-4 -10.99471,11.0976 -10.99471,11.0976 L 87.553424,169.3131 c 0,0 -0.722635,-2.04037 1.402765,-1.65781 -0.04253,-0.0425 5.515402,4.24018 5.515402,4.24018 0.135864,0.06 0.161135,-0.1065 0.11683,-0.13816 l -9.436764,-7.46015 c 0,0 -0.894543,-2.27862 1.337126,-2.19359 0.01556,0.005 9.651184,7.27329 9.651184,7.27329 0.18642,0.0916 0.25218,-0.18007 0.17003,-0.23379 l -11.009561,-8.2678 c 0,0 -1.041446,-2.57172 1.679064,-2.52923 l 11.296147,8.37769 c 0.21487,0.0537 0.25141,-0.20101 0.1503,-0.27052 l -9.302856,-6.79303 c 0,0 -0.390746,-1.9838 1.262428,-1.95374 0,-0.0301 15.616291,11.30911 15.616291,11.30911 z"
       id="path426-7"
       sodipodi:nodetypes="ccccccccccccccccccccc" /><path
       style="fill:#f39322;fill-opacity:1;stroke:none;stroke-width:0.264583px;stroke-linecap:butt;stroke-linejoin:miter;stroke-opacity:1"
       d="m 113.94924,168.68865 -18.034613,18.27507 c 0,0 -1.32253,2.7653 1.50289,1.68322 -0.0355,-0.0645 -0.51098,-1.2023 0.18034,-2.01386 0.69133,-0.81155 9.919043,-10.43 9.919043,-10.43 l 0.13526,0.18034 -9.578023,10.08166 c 0,0 -0.90329,0.72262 -0.46758,2.10413 0.009,0.0307 0.26567,0.53136 1.7747,-0.0744 0.0212,-0.0107 -0.59511,-0.95643 -0.0531,-1.77471 0.54198,-0.81828 10.234253,-11.15943 10.234253,-11.15943 l 0.12018,0.13526 -9.61845,10.55025 c 0,0 -1.367643,1.41271 -0.165323,2.26935 1.202303,0.85664 3.719133,-2.16006 3.719133,-2.16006 0,0 -0.53302,-0.83068 0.35368,-1.82258 0.8867,-0.99191 8.05546,-8.58146 8.05546,-8.58146 l 0.10651,0.12045 -8.12965,8.75665 c 0,0 -1.25398,1.63656 0.91392,1.76407 2.1679,0.12756 12.90116,-11.15833 12.90116,-11.15833 0,0 1.30163,-1.662 1.25654,-2.188 -0.0581,0.0166 -0.94681,0.10516 -0.94681,0.10516 0,0 2.4533,-2.10424 2.75086,-3.20944 -0.048,0.0177 -0.99894,0.34005 -0.99894,0.34005 0,0 2.52922,-1.95535 2.63549,-3.46439 l -1.14772,0.72263 c 0,0 2.38045,-2.25292 2.50797,-3.67693 -0.0386,0.04 -0.76515,0.48883 -0.76515,0.48883 0,0 1.97663,-3.12434 1.21148,-5.18596 -0.0212,0.0212 -10.37357,9.3224 -10.37357,9.3224 z"
       id="path1037-0"
       sodipodi:nodetypes="cccscccccscccscscccsccccccccccc" /><rect
       style="opacity:1;fill:#00214d;fill-opacity:1;fill-rule:evenodd;stroke:none;stroke-width:0.265202;stroke-linecap:round;stroke-linejoin:round;stroke-dasharray:none;stroke-opacity:1;paint-order:fill markers stroke"
       id="rect7384"
       width="5.9534788"
       height="0.95145136"
       x="-54.066525"
       y="197.86386"
       ry="1.6941301"
       rx="1.6950445"
       transform="matrix(0.70089827,-0.71326125,0.67338177,0.73929493,0,0)" /><rect
       style="fill:#00214d;fill-opacity:1;fill-rule:evenodd;stroke:none;stroke-width:0.265202;stroke-linecap:round;stroke-linejoin:round;stroke-dasharray:none;stroke-opacity:1;paint-order:fill markers stroke"
       id="rect7384-2"
       width="4.4530706"
       height="0.97409838"
       x="-52.802143"
       y="196.22874"
       ry="1.0688339"
       rx="1.6950445"
       transform="matrix(0.70089827,-0.71326125,0.67338177,0.73929493,0,0)" /><rect
       style="fill:#00214d;fill-opacity:1;fill-rule:evenodd;stroke:none;stroke-width:0.265202;stroke-linecap:round;stroke-linejoin:round;stroke-dasharray:none;stroke-opacity:1;paint-order:fill markers stroke"
       id="rect7384-2-3"
       width="2.8563077"
       height="0.92280132"
       x="-51.336792"
       y="194.80269"
       ry="0.98526174"
       rx="1.6950445"
       transform="matrix(0.70089827,-0.71326125,0.67338177,0.73929493,0,0)" /></g></svg>
