<?xml version="1.0" encoding="UTF-8" standalone="no"?>
<!-- Created with Inkscape (http://www.inkscape.org/) -->

<svg
   width="46.999996mm"
   height="46.999966mm"
   viewBox="0 0 46.999996 46.999966"
   version="1.1"
   id="svg3066"
   xml:space="preserve"
   inkscape:version="1.2 (dc2aedaf03, 2022-05-15)"
   sodipodi:docname="lupa.svg"
   xmlns:inkscape="http://www.inkscape.org/namespaces/inkscape"
   xmlns:sodipodi="http://sodipodi.sourceforge.net/DTD/sodipodi-0.dtd"
   xmlns="http://www.w3.org/2000/svg"
   xmlns:svg="http://www.w3.org/2000/svg"><sodipodi:namedview
     id="namedview3068"
     pagecolor="#ffffff"
     bordercolor="#666666"
     borderopacity="1.0"
     inkscape:showpageshadow="2"
     inkscape:pageopacity="0.0"
     inkscape:pagecheckerboard="0"
     inkscape:deskcolor="#d1d1d1"
     inkscape:document-units="mm"
     showgrid="false"
     inkscape:zoom="2.3786088"
     inkscape:cx="75.254073"
     inkscape:cy="120.86897"
     inkscape:window-width="1920"
     inkscape:window-height="1017"
     inkscape:window-x="-8"
     inkscape:window-y="-8"
     inkscape:window-maximized="1"
     inkscape:current-layer="layer1" /><defs
     id="defs3063" /><g
     inkscape:label="Camada 1"
     inkscape:groupmode="layer"
     id="layer1"
     transform="translate(-47.000005,-63.244752)"><path
       style="fill:#000000;stroke-width:1"
       d="m 91.045182,110.12191 c 0.591585,-0.1593 1.316517,-0.6186 1.825593,-1.15665 1.418446,-1.4992 1.500108,-3.26464 0.247679,-5.35471 -0.250119,-0.4174 -1.698456,-1.93038 -5.562159,-5.810409 -4.57474,-4.594067 -5.223986,-5.280295 -5.223986,-5.521572 0,-0.159148 0.282738,-0.836882 0.669391,-1.604572 1.352135,-2.684621 1.954402,-4.997428 2.05819,-7.903815 0.113006,-3.164508 -0.445099,-5.856188 -1.801762,-8.689719 -2.77466,-5.79516 -7.999083,-9.649564 -14.477027,-10.680655 -1.301872,-0.20722 -4.183986,-0.206594 -5.531965,10e-4 -4.148108,0.639432 -7.789208,2.472428 -10.705198,5.389185 -2.915995,2.916757 -4.748505,6.558816 -5.387772,10.708013 -0.207736,1.348334 -0.208358,4.231202 -10e-4,5.53342 1.030819,6.479643 4.88421,11.705444 10.677849,14.48083 2.832786,1.357024 5.523759,1.915274 8.687436,1.802234 2.905623,-0.10381 5.217822,-0.70624 7.901737,-2.058729 0.767492,-0.386756 1.445048,-0.669564 1.60415,-0.669564 0.241214,0 0.927265,0.649416 5.520124,5.225363 5.266163,5.24676 5.659773,5.6008 6.728184,6.05177 0.935575,0.3949 1.922133,0.4869 2.77073,0.25839 z M 64.40344,96.284113 c -3.211847,-0.393195 -6.120173,-1.808244 -8.337573,-4.056661 -1.266918,-1.284639 -1.926938,-2.204599 -2.691094,-3.750939 -1.964738,-3.975836 -1.902325,-8.785955 0.165114,-12.72554 4.04104,-7.700364 14.011637,-9.949987 20.978327,-4.733251 1.958359,1.46644 3.674594,3.712861 4.590163,6.008171 2.748945,6.891533 -0.229768,14.603583 -6.93439,17.953517 -2.220579,1.109501 -5.233179,1.615329 -7.770547,1.304703 z M 75.575416,80.94013 c 0.737203,-0.342475 1.143579,-0.986098 1.147112,-1.816825 0.0017,-0.38768 -0.08172,-0.64175 -0.455905,-1.389393 -1.951322,-3.898855 -5.664258,-6.419824 -10.057564,-6.82877 -1.984804,-0.184752 -4.437649,0.216653 -5.940078,0.972084 -0.739153,0.371655 -1.104852,0.957321 -1.101148,1.763498 0.0049,1.070515 0.885841,1.954309 1.950131,1.956477 0.13829,2.78e-4 0.676083,-0.141044 1.195096,-0.314062 2.604894,-0.868364 5.115135,-0.595092 7.350481,0.800193 1.354772,0.845637 2.325798,1.93008 3.146863,3.514411 0.23589,0.455176 0.520146,0.902752 0.631679,0.994615 0.626696,0.516161 1.473657,0.65423 2.133333,0.347772 z"
       id="path3225" /></g></svg>
