<?xml version="1.0" encoding="UTF-8" standalone="no"?>
<!-- Created with Inkscape (http://www.inkscape.org/) -->

<svg
   width="47mm"
   height="47mm"
   viewBox="0 0 46.999998 46.999999"
   version="1.1"
   id="svg8721"
   xml:space="preserve"
   inkscape:version="1.2 (dc2aedaf03, 2022-05-15)"
   sodipodi:docname="user.svg"
   xmlns:inkscape="http://www.inkscape.org/namespaces/inkscape"
   xmlns:sodipodi="http://sodipodi.sourceforge.net/DTD/sodipodi-0.dtd"
   xmlns="http://www.w3.org/2000/svg"
   xmlns:svg="http://www.w3.org/2000/svg"><sodipodi:namedview
     id="namedview8723"
     pagecolor="#ffffff"
     bordercolor="#666666"
     borderopacity="1.0"
     inkscape:showpageshadow="2"
     inkscape:pageopacity="0.0"
     inkscape:pagecheckerboard="0"
     inkscape:deskcolor="#d1d1d1"
     inkscape:document-units="mm"
     showgrid="false"
     inkscape:zoom="1.6819304"
     inkscape:cx="107.01989"
     inkscape:cy="225.63359"
     inkscape:window-width="1920"
     inkscape:window-height="1017"
     inkscape:window-x="-8"
     inkscape:window-y="-8"
     inkscape:window-maximized="1"
     inkscape:current-layer="layer1" /><defs
     id="defs8718" /><g
     inkscape:label="Camada 1"
     inkscape:groupmode="layer"
     id="layer1"
     transform="translate(-65.04963,-36.804291)"><path
       style="fill:#000000;stroke-width:1"
       d="M 86.973325,83.701606 C 66.642297,81.685598 57.771739,57.942826 72.033987,43.715255 86.83968,28.945558 112.07612,39.416307 112.04961,60.317973 112.03246,73.82884 100.05408,84.998686 86.973325,83.701606 Z m 3.565753,-2.554339 c 4.469969,-0.40701 8.999412,-2.413914 12.232932,-5.420169 l 0.61276,-0.5697 -0.45778,-0.922222 c -5.891065,-11.867675 -22.74416,-11.867675 -28.635223,0 l -0.457789,0.922222 0.612766,0.5697 c 4.226321,3.929278 10.23593,5.953415 16.092334,5.420169 z M 90.724313,62.51258 c 5.825869,-1.523175 8.205118,-8.63596 4.450652,-13.30525 -4.871659,-6.058696 -14.592577,-2.89078 -14.927513,4.864672 -0.241971,5.602896 5.043546,9.861123 10.476861,8.440578 z"
       id="path8868" /></g></svg>
